<svg xmlns="http://www.w3.org/2000/svg" width="668" height="668" viewBox="0 0 668 668">
<g>
<path d="M 235.01 629.75 C235.01,632.09 234.59,634.00 234.08,634.00 C232.07,634.00 221.90,623.56 218.21,617.71 C205.60,597.75 201.21,576.47 205.88,557.99 C210.25,540.69 217.17,529.87 235.95,511.00 C259.57,487.27 265.84,479.40 270.01,468.23 C272.02,462.86 272.04,462.36 270.55,453.66 C268.60,442.30 268.61,437.65 270.60,426.03 C273.28,410.44 278.73,399.83 297.33,374.00 C304.64,363.85 308.82,356.00 306.92,356.00 C306.41,356.00 306.00,356.47 306.00,357.06 C306.00,357.64 297.53,366.75 287.18,377.31 C267.07,397.81 265.54,399.66 261.12,408.67 C255.16,420.83 254.66,431.48 259.38,446.00 C263.73,459.39 263.18,469.90 257.63,479.37 C253.73,486.03 247.60,489.38 240.42,488.79 C235.88,488.41 234.34,487.75 231.47,484.97 C229.15,482.72 228.00,480.69 228.00,478.82 C228.00,476.11 228.11,476.05 232.36,476.64 C236.16,477.16 236.93,476.93 238.36,474.89 C241.60,470.27 240.54,465.49 232.97,450.50 C224.22,433.18 222.63,425.36 225.20,412.32 C228.12,397.46 235.73,383.03 247.68,369.64 C269.27,345.46 271.48,342.36 273.59,333.30 C274.90,327.66 274.26,319.50 272.50,319.50 C271.98,319.50 271.21,321.52 270.79,324.00 C269.48,331.70 264.50,340.03 253.47,353.00 C237.04,372.31 230.84,381.73 225.19,396.00 C223.55,400.12 221.07,405.65 219.67,408.28 C215.09,416.88 214.47,422.72 216.54,437.82 C218.11,449.23 218.19,452.03 217.11,457.32 C214.81,468.61 208.12,476.73 199.28,478.95 C190.99,481.04 181.24,476.36 177.12,468.32 C174.69,463.58 176.53,455.00 179.97,455.00 C180.65,455.00 182.55,456.12 184.18,457.50 C187.63,460.40 189.25,460.61 191.43,458.43 C195.05,454.81 194.70,451.44 189.12,436.00 C187.42,431.33 186.03,425.81 186.02,423.75 C186.01,421.10 185.56,420.00 184.50,420.00 C182.25,420.00 171.14,423.96 165.58,426.74 C159.62,429.73 150.99,438.15 148.11,443.77 C144.94,450.00 143.45,460.47 144.96,465.94 C146.34,470.96 151.34,476.55 155.35,477.55 C157.90,478.19 158.55,477.91 164.67,473.50 C165.65,472.79 166.33,472.94 167.01,474.00 C170.01,478.71 165.84,489.14 159.50,492.80 C156.15,494.73 154.43,495.03 148.90,494.69 C130.86,493.59 119.00,477.44 119.00,454.00 C119.00,444.10 120.57,437.76 125.60,427.27 C129.08,420.01 131.57,416.47 137.26,410.72 C147.86,400.00 160.75,391.82 173.74,387.56 C176.62,386.62 179.20,385.49 179.47,385.06 C179.73,384.62 177.83,383.98 175.23,383.63 C162.54,381.93 153.49,376.08 132.39,355.96 C114.67,339.05 106.06,332.43 95.00,327.19 C88.10,323.92 86.74,323.63 78.00,323.57 C70.28,323.51 67.62,323.90 63.82,325.66 C53.62,330.38 45.54,341.24 42.95,353.76 C39.83,368.77 46.14,384.03 58.37,391.04 C68.15,396.65 80.52,394.36 87.44,385.66 C90.24,382.14 90.50,381.17 90.50,374.33 C90.50,367.13 90.37,366.72 87.23,363.92 C81.50,358.80 71.66,360.65 70.83,367.00 C70.39,370.34 67.30,370.29 64.77,366.90 C62.39,363.70 62.19,356.46 64.38,352.23 C68.09,345.06 75.53,341.57 85.84,342.18 C115.76,343.94 125.40,384.31 101.34,407.06 C90.84,416.99 75.90,421.46 61.43,418.99 C49.95,417.03 37.65,410.64 29.01,402.13 C8.77,382.19 4.97,346.06 20.29,319.15 C28.34,305.00 42.42,293.35 58.94,287.15 C64.44,285.10 67.37,284.68 77.00,284.61 C100.28,284.44 115.91,291.92 142.69,316.04 C160.39,331.98 163.61,334.45 171.56,338.21 C178.27,341.39 178.91,341.50 191.00,341.46 C211.15,341.41 224.52,336.60 235.75,325.38 C242.23,318.90 242.48,316.40 237.40,308.85 C230.75,298.98 229.57,296.00 229.57,289.00 C229.57,281.16 231.26,277.51 238.19,270.38 L 243.17 265.27 L 240.33 259.88 C237.74,254.96 237.50,253.60 237.50,244.00 C237.50,234.48 237.76,233.01 240.25,228.29 C243.84,221.47 248.27,216.51 253.51,213.44 C256.98,211.41 257.86,210.28 258.35,207.23 C258.68,205.18 260.31,201.86 261.97,199.85 C263.63,197.84 266.57,193.21 268.50,189.56 C277.36,172.86 284.41,162.47 297.21,147.25 C301.49,142.16 304.60,138.00 304.13,138.00 C301.60,138.00 275.73,167.96 267.22,180.73 C265.31,183.61 263.38,185.73 262.94,185.46 C261.43,184.53 258.64,169.53 258.57,162.00 C258.49,153.19 260.57,148.18 267.28,140.98 C276.03,131.60 284.65,125.89 310.24,112.57 C331.59,101.45 360.00,89.77 370.80,87.67 C375.21,86.82 374.27,88.07 366.69,93.19 C343.27,108.99 324.37,126.05 305.38,148.50 C299.83,155.07 277.83,184.58 274.87,189.45 C271.86,194.39 272.33,195.00 279.10,195.00 C286.34,195.00 290.81,196.88 295.06,201.72 C298.68,205.84 299.66,205.52 297.71,200.86 C296.39,197.70 290.59,191.79 286.52,189.45 C284.86,188.50 285.30,187.56 291.44,179.08 C317.11,143.60 336.42,122.91 357.62,108.16 C360.86,105.91 365.98,102.32 369.00,100.19 C380.18,92.31 399.72,81.18 407.00,78.56 C422.39,73.01 439.27,73.13 451.57,78.88 C470.41,87.70 488.99,115.01 524.64,186.29 C548.81,234.59 550.52,239.43 547.58,251.09 C544.27,264.24 534.45,273.83 512.86,284.99 C502.19,290.50 501.02,290.90 500.18,289.28 C499.68,288.30 498.95,282.33 498.57,276.00 C497.45,257.44 493.22,212.72 491.06,196.61 C489.00,181.30 487.18,175.02 488.41,187.50 C490.09,204.49 490.96,222.83 491.61,255.00 L 492.31 289.50 L 483.31 296.88 L 482.68 251.69 C481.88,194.94 478.53,123.72 476.34,117.24 C474.71,112.40 469.60,102.00 468.85,102.00 C467.74,102.00 467.76,102.45 469.48,116.21 C472.54,140.79 473.33,165.88 473.50,244.00 L 473.67 322.50 L 479.05 341.00 C483.67,356.85 484.44,360.72 484.46,368.00 C484.48,374.38 484.02,377.37 482.63,380.00 C480.79,383.49 474.17,391.00 472.95,391.00 C472.60,391.00 472.33,386.16 472.36,380.25 C472.42,367.99 470.61,362.38 465.12,357.75 C462.04,355.16 458.24,353.43 457.43,354.24 C455.99,355.67 455.95,370.47 457.35,378.50 C461.59,402.71 472.11,422.15 487.04,433.37 C502.11,444.70 515.59,442.47 521.95,427.60 C524.48,421.70 525.81,412.54 526.54,396.00 C526.90,388.02 528.00,377.38 528.99,372.34 C532.72,353.49 543.80,338.68 559.71,331.28 C566.75,328.01 568.51,327.62 578.00,327.23 C587.07,326.86 589.30,327.10 594.34,329.01 C612.71,335.95 621.80,354.97 613.68,369.50 C607.17,381.15 594.28,385.31 586.08,378.42 C580.60,373.81 581.19,368.49 587.05,369.66 C589.35,370.12 590.53,369.63 592.96,367.19 C599.72,360.44 594.47,352.00 583.51,352.00 C574.63,352.00 567.03,358.24 562.80,369.00 C560.79,374.10 560.63,376.38 560.51,400.50 C560.37,430.07 559.52,435.61 552.94,449.79 C543.97,469.11 526.83,480.00 505.40,480.00 C486.93,480.00 468.98,470.70 452.68,452.71 C434.55,432.69 425.22,415.07 416.35,384.11 C416.13,383.34 415.72,382.94 415.44,383.23 C414.28,384.39 417.36,403.11 420.05,411.21 C425.87,428.75 434.78,442.88 448.83,456.80 C457.00,464.89 457.49,465.63 459.82,473.39 C463.16,484.47 463.91,502.82 461.53,515.50 C454.66,552.16 430.62,580.25 398.14,589.57 C381.36,594.38 367.94,592.17 356.45,582.70 C351.36,578.50 347.00,569.06 347.00,562.22 C347.00,549.80 355.11,541.00 366.58,541.00 C370.05,541.00 373.28,541.64 375.05,542.69 C379.96,545.59 381.85,553.87 377.46,553.20 C371.90,552.35 369.61,552.76 367.84,554.94 C365.48,557.86 365.51,560.11 367.96,563.22 C371.06,567.16 377.52,568.52 383.98,566.60 C390.17,564.76 396.72,561.15 402.89,556.18 C410.86,549.75 419.93,533.38 422.94,520.00 C425.83,507.15 422.70,487.77 415.68,475.00 C410.19,465.00 406.50,459.00 405.85,459.00 C405.45,459.00 404.83,461.14 404.48,463.75 C402.48,478.42 396.56,493.44 389.15,502.64 C386.87,505.46 381.00,510.52 376.10,513.88 C370.00,518.05 365.09,522.50 360.55,527.94 C346.83,544.39 322.76,559.56 289.00,573.02 C259.97,584.60 248.72,592.39 241.67,605.81 C237.74,613.29 235.04,623.01 235.01,629.75 ZM 387.75 647.15 C370.16,649.89 323.41,650.64 306.00,648.47 C279.83,645.20 243.00,636.28 243.00,633.21 C243.00,628.74 245.40,618.78 246.59,618.33 C247.34,618.04 252.58,619.20 258.23,620.90 C330.82,642.81 414.81,634.10 481.95,597.70 C508.10,583.53 530.08,567.02 552.05,545.05 C581.86,515.23 600.88,486.59 617.40,446.67 C623.12,432.84 629.80,410.09 632.87,394.00 C647.74,316.03 634.23,241.10 593.90,177.77 C545.96,102.48 467.73,53.84 377.85,43.43 C358.31,41.17 321.25,41.91 302.50,44.93 C268.93,50.34 237.77,60.82 208.32,76.58 C145.60,110.16 94.18,170.47 70.98,237.66 C66.94,249.38 61.02,270.99 61.01,274.12 C61.00,275.25 59.11,276.26 54.75,277.48 C51.31,278.44 47.22,279.88 45.66,280.69 C44.09,281.49 42.58,281.92 42.30,281.64 C41.42,280.75 47.06,256.06 51.01,243.50 C57.05,224.30 60.54,215.59 69.44,197.50 C81.65,172.70 92.16,156.67 111.09,134.00 C155.02,81.39 217.40,44.14 284.24,30.61 C396.12,7.95 508.78,47.05 583.63,134.50 C615.02,171.17 638.51,218.74 649.40,267.71 C659.11,311.35 658.01,366.45 646.52,412.00 C615.23,535.97 514.60,627.42 387.75,647.15 ZM 291.36 545.25 L 292.90 549.01 L 298.09 546.96 C300.95,545.84 305.14,543.86 307.39,542.56 C314.46,538.51 315.45,538.51 319.91,542.54 L 323.94 546.18 L 330.22 542.40 C338.99,537.12 345.77,531.97 350.83,526.73 L 355.17 522.25 L 350.33 521.57 C335.53,519.48 326.51,508.07 331.70,498.00 C333.56,494.39 337.00,492.67 337.00,495.35 C337.00,496.17 338.17,498.23 339.59,499.92 C343.10,504.10 348.49,504.14 355.63,500.04 C366.39,493.86 375.00,477.18 375.00,462.48 C375.00,455.23 371.53,442.46 366.46,431.02 C354.91,404.98 351.79,394.32 351.87,381.25 C351.90,375.96 351.51,372.00 350.96,372.00 C350.43,372.00 350.00,372.46 350.00,373.01 C350.00,373.57 343.14,381.11 334.75,389.76 C315.37,409.76 310.92,415.04 305.54,424.48 C299.24,435.54 296.64,446.02 297.22,458.06 C297.96,473.61 303.49,482.58 316.38,489.16 C321.57,491.81 322.09,492.34 320.79,493.64 C319.98,494.45 316.88,495.36 313.91,495.66 C307.43,496.32 298.03,493.49 291.30,488.86 C287.10,485.97 279.00,476.79 279.00,474.91 C279.00,472.97 276.90,474.13 275.96,476.59 C275.42,478.02 273.18,482.26 270.99,486.02 C268.79,489.78 267.00,493.05 267.00,493.30 C267.00,493.55 268.41,494.34 270.13,495.06 C274.05,496.68 277.46,503.63 276.50,508.02 C275.95,510.52 276.42,511.49 279.81,514.72 C284.35,519.07 285.80,524.45 284.09,530.63 C283.09,534.25 283.22,534.64 286.43,537.98 C288.30,539.91 290.51,543.19 291.36,545.25 ZM 200.72 605.75 C201.88,608.09 202.51,610.00 202.14,610.00 C200.54,610.00 178.73,597.27 170.00,591.24 C128.46,562.53 93.46,522.52 70.61,477.63 C63.72,464.08 54.01,440.21 52.50,433.12 L 51.78 429.74 L 56.64 430.54 C59.31,430.97 63.46,431.59 65.85,431.92 L 70.21 432.50 L 74.89 444.50 C88.64,479.73 109.50,512.06 136.27,539.62 C151.77,555.59 164.72,566.54 181.67,578.00 L 194.24 586.50 L 196.43 594.00 C197.64,598.12 199.57,603.41 200.72,605.75 ZM 405.50 285.44 C424.91,290.17 443.88,276.39 445.71,256.24 C447.01,241.94 436.26,225.67 423.11,222.01 C421.13,221.46 416.08,221.01 411.91,221.01 C405.49,221.00 403.40,221.46 398.39,223.96 C387.77,229.27 381.18,238.88 380.25,250.41 C378.98,266.25 390.11,281.68 405.50,285.44 ZM 401.99 267.51 C400.40,268.33 398.96,268.96 398.80,268.92 C392.85,267.35 389.21,261.89 387.01,251.21 C385.45,243.68 386.55,240.00 390.33,240.00 C392.30,240.00 393.26,241.21 395.93,247.00 C397.71,250.85 399.46,254.00 399.83,254.00 C400.20,254.00 401.76,251.75 403.31,249.00 C404.85,246.25 406.79,244.00 407.62,244.00 C408.44,244.00 408.87,243.59 408.56,243.10 C407.77,241.83 414.36,242.58 416.68,244.03 C417.74,244.70 419.49,246.84 420.56,248.80 C421.63,250.76 422.98,252.52 423.56,252.70 C424.14,252.89 425.65,250.54 426.92,247.48 C428.19,244.42 429.88,241.26 430.68,240.46 C432.90,238.24 435.91,238.70 437.16,241.44 C439.39,246.35 432.97,264.34 428.03,266.98 C424.33,268.96 421.35,268.12 417.70,264.09 C415.76,261.94 413.66,259.24 413.05,258.09 C412.43,256.94 411.61,256.00 411.21,256.00 C410.82,256.00 409.24,258.25 407.69,261.01 C406.14,263.76 403.58,266.68 401.99,267.51 ZM 248.60 258.79 C250.86,262.24 252.93,261.17 256.49,254.74 C261.22,246.19 263.52,234.96 262.40,225.83 C261.31,216.97 259.94,216.26 254.11,221.52 C248.46,226.63 244.00,235.89 244.00,242.53 C244.00,247.91 245.93,254.71 248.60,258.79 ZM 365.00 215.82 C365.00,216.61 368.36,214.06 372.47,210.16 C376.58,206.26 382.19,201.92 384.95,200.52 C396.48,194.68 411.42,193.34 423.49,197.07 C427.18,198.21 430.40,198.93 430.66,198.67 C431.48,197.86 424.53,193.10 420.41,191.65 C405.84,186.50 387.69,190.33 375.58,201.10 C370.52,205.59 365.00,213.28 365.00,215.82 ZM 400.00 309.11 C413.64,313.52 433.02,309.12 441.92,299.60 C445.07,296.23 443.64,296.31 436.93,299.90 C431.00,303.06 419.48,306.00 413.00,306.00 C406.55,306.00 396.14,303.26 388.51,299.55 C384.67,297.68 381.32,296.34 381.08,296.58 C380.25,297.42 386.52,303.19 390.50,305.26 C392.70,306.40 396.98,308.14 400.00,309.11 ZM 342.09 481.13 C337.17,485.11 331.00,482.32 331.00,476.10 C331.00,471.56 333.39,469.00 337.64,469.00 C342.17,469.00 344.40,471.15 344.40,475.51 C344.40,478.22 343.76,479.78 342.09,481.13 ZM 307.09 531.13 C305.82,532.16 303.72,533.00 302.43,533.00 C299.37,533.00 296.00,529.33 296.00,526.00 C296.00,520.30 304.63,516.44 308.08,520.59 C310.27,523.23 309.73,528.99 307.09,531.13 ZM 263.65 536.17 C266.07,538.84 269.74,538.42 273.08,535.08 C276.32,531.83 276.87,528.01 274.43,525.57 C271.99,523.13 268.17,523.68 264.92,526.92 C261.64,530.21 261.20,533.45 263.65,536.17 ZM 242.65 540.17 C246.42,544.34 254.00,540.57 254.00,534.53 C254.00,530.61 252.43,529.00 248.61,529.00 C242.57,529.00 238.85,535.97 242.65,540.17 ZM 355.69 432.83 C351.31,436.94 345.00,434.45 345.00,428.60 C345.00,424.54 347.60,422.00 351.77,422.00 C357.53,422.00 359.98,428.79 355.69,432.83 ZM 364.32 472.85 C364.22,472.90 364.13,472.95 364.04,472.99 C362.93,473.58 362.33,473.90 361.74,473.87 C361.01,473.83 360.30,473.24 358.63,471.93 C355.33,469.33 354.93,463.64 357.93,462.04 C362.73,459.47 368.02,462.13 367.98,467.08 C367.97,470.06 367.14,471.37 364.32,472.85 ZM 331.42 420.09 C328.92,422.85 324.41,422.56 322.41,419.51 C320.35,416.36 321.21,412.57 324.46,410.43 C330.07,406.76 336.01,415.02 331.42,420.09 ZM 364.17 451.35 C361.12,454.11 358.27,453.35 356.08,449.18 C353.55,444.39 360.93,439.33 364.80,443.20 C366.59,444.99 366.25,449.47 364.17,451.35 ZM 339.17 446.35 C338.17,447.26 336.83,448.00 336.21,448.00 C334.55,448.00 331.00,443.89 331.00,441.97 C331.00,438.18 337.15,435.55 339.80,438.20 C341.59,439.99 341.25,444.47 339.17,446.35 ZM 316.17 437.35 C313.79,439.50 311.71,439.44 309.65,437.17 C306.35,433.52 308.20,429.00 313.00,429.00 C317.88,429.00 319.80,434.06 316.17,437.35 ZM 259.55 238.53 C257.96,242.33 256.90,242.79 254.99,240.49 C254.04,239.34 253.41,239.25 252.37,240.11 C250.38,241.76 248.00,239.45 248.00,235.88 C248.00,232.98 249.47,231.92 250.25,234.25 C250.58,235.22 251.04,235.20 252.34,234.13 C253.55,233.13 254.35,233.05 255.30,233.84 C256.02,234.43 257.59,234.66 258.80,234.34 C261.40,233.66 261.45,233.98 259.55,238.53 ZM 327.80 459.80 C325.36,462.24 321.00,460.11 321.00,456.49 C321.00,453.67 324.15,451.60 327.04,452.51 C329.28,453.22 329.76,457.84 327.80,459.80 Z" fill="rgb(142,116,91)"/>
<path d="M 401.79 251.53 C402.32,250.64 402.91,249.57 403.50,248.42 C406.67,242.14 409.88,239.49 413.24,240.36 C414.89,240.79 416.02,241.84 418.83,246.20 C418.06,245.21 417.27,244.40 416.68,244.03 C414.36,242.58 407.77,241.83 408.56,243.10 C408.87,243.59 408.44,244.00 407.62,244.00 C406.79,244.00 404.85,246.25 403.31,249.00 C402.79,249.92 402.27,250.79 401.79,251.53 ZM 399.83 254.00 C399.46,254.00 397.71,250.85 395.93,247.00 C397.65,250.73 399.39,253.80 399.87,253.99 C399.86,254.00 399.84,254.00 399.83,254.00 Z" fill="rgb(162,146,129)"/>
<path d="M 491.33 198.70 C489.96,189.72 488.83,187.37 489.51,197.00 C490.60,212.39 491.98,254.11 491.99,271.63 L 491.99 273.63 L 491.61 255.00 C490.96,222.83 490.09,204.49 488.41,187.50 C487.18,175.02 489.00,181.30 491.06,196.61 C491.14,197.26 491.23,197.96 491.33,198.70 ZM 499.88 288.22 C499.14,286.40 498.99,282.90 498.65,277.24 C498.97,281.90 499.45,286.20 499.88,288.22 ZM 504.89 288.97 C506.68,288.16 509.22,286.87 512.86,284.99 C509.37,286.79 506.80,288.17 504.89,288.97 ZM 498.33 272.30 C498.15,269.73 497.93,266.79 497.68,263.60 C497.93,266.77 498.15,269.70 498.33,272.30 Z" fill="rgb(196,184,171)"/>
<path d="M 0.00 334.00 L 0.00 0.00 L 334.00 0.00 L 668.00 0.00 L 668.00 334.00 L 668.00 668.00 L 334.00 668.00 L 0.00 668.00 L 0.00 334.00 ZM 387.75 647.15 C514.60,627.42 615.23,535.97 646.52,412.00 C658.01,366.45 659.11,311.35 649.40,267.71 C638.51,218.74 615.02,171.17 583.63,134.50 C508.78,47.05 396.12,7.95 284.24,30.61 C217.40,44.14 155.02,81.39 111.09,134.00 C92.16,156.67 81.65,172.70 69.44,197.50 C60.54,215.59 57.05,224.30 51.01,243.50 C47.06,256.06 41.42,280.75 42.30,281.64 C42.58,281.92 44.09,281.49 45.66,280.69 C47.22,279.88 51.31,278.44 54.75,277.48 C59.11,276.26 61.00,275.25 61.01,274.12 C61.02,270.99 66.94,249.38 70.98,237.66 C94.18,170.47 145.60,110.16 208.32,76.58 C237.77,60.82 268.93,50.34 302.50,44.93 C321.25,41.91 358.31,41.17 377.85,43.43 C467.73,53.84 545.96,102.48 593.90,177.77 C634.23,241.10 647.74,316.03 632.87,394.00 C629.80,410.09 623.12,432.84 617.40,446.67 C600.88,486.59 581.86,515.23 552.05,545.05 C530.08,567.02 508.10,583.53 481.95,597.70 C414.81,634.10 330.82,642.81 258.23,620.90 C252.58,619.20 247.34,618.04 246.59,618.33 C245.40,618.78 243.00,628.74 243.00,633.21 C243.00,636.28 279.83,645.20 306.00,648.47 C323.41,650.64 370.16,649.89 387.75,647.15 ZM 235.01 629.75 C235.04,623.01 237.74,613.29 241.67,605.81 C248.72,592.39 259.97,584.60 289.00,573.02 C322.76,559.56 346.83,544.39 360.55,527.94 C365.09,522.50 370.00,518.05 376.10,513.88 C381.00,510.52 386.87,505.46 389.15,502.64 C396.56,493.44 402.48,478.42 404.48,463.75 C404.83,461.14 405.45,459.00 405.85,459.00 C406.50,459.00 410.19,465.00 415.68,475.00 C422.70,487.77 425.83,507.15 422.94,520.00 C419.93,533.38 410.86,549.75 402.89,556.18 C396.72,561.15 390.17,564.76 383.98,566.60 C377.52,568.52 371.06,567.16 367.96,563.22 C365.51,560.11 365.48,557.86 367.84,554.94 C369.61,552.76 371.90,552.35 377.46,553.20 C381.85,553.87 379.96,545.59 375.05,542.69 C373.28,541.64 370.05,541.00 366.58,541.00 C355.11,541.00 347.00,549.80 347.00,562.22 C347.00,569.06 351.36,578.50 356.45,582.70 C367.94,592.17 381.36,594.38 398.14,589.57 C430.62,580.25 454.66,552.16 461.53,515.50 C463.91,502.82 463.16,484.47 459.82,473.39 C457.49,465.63 457.00,464.89 448.83,456.80 C434.78,442.88 425.87,428.75 420.05,411.21 C417.36,403.11 414.28,384.39 415.44,383.23 C415.72,382.94 416.13,383.34 416.35,384.11 C425.22,415.07 434.55,432.69 452.68,452.71 C468.98,470.70 486.93,480.00 505.40,480.00 C526.83,480.00 543.97,469.11 552.94,449.79 C559.52,435.61 560.37,430.07 560.51,400.50 C560.63,376.38 560.79,374.10 562.80,369.00 C567.03,358.24 574.63,352.00 583.51,352.00 C594.47,352.00 599.72,360.44 592.96,367.19 C590.53,369.63 589.35,370.12 587.05,369.66 C581.19,368.49 580.60,373.81 586.08,378.42 C594.28,385.31 607.17,381.15 613.68,369.50 C621.80,354.97 612.71,335.95 594.34,329.01 C589.30,327.10 587.07,326.86 578.00,327.23 C568.51,327.62 566.75,328.01 559.71,331.28 C543.80,338.68 532.72,353.49 528.99,372.34 C528.00,377.38 526.90,388.02 526.54,396.00 C525.81,412.54 524.48,421.70 521.95,427.60 C515.59,442.47 502.11,444.70 487.04,433.37 C472.11,422.15 461.59,402.71 457.35,378.50 C455.95,370.47 455.99,355.67 457.43,354.24 C458.24,353.43 462.04,355.16 465.12,357.75 C470.61,362.38 472.42,367.99 472.36,380.25 C472.33,386.16 472.60,391.00 472.95,391.00 C474.17,391.00 480.79,383.49 482.63,380.00 C484.02,377.37 484.48,374.38 484.46,368.00 C484.44,360.72 483.67,356.85 479.05,341.00 L 473.67 322.50 L 473.50 244.00 C473.33,165.88 472.54,140.79 469.48,116.21 C467.76,102.45 467.74,102.00 468.85,102.00 C469.60,102.00 474.71,112.40 476.34,117.24 C478.53,123.72 481.88,194.94 482.68,251.69 L 483.31 296.88 L 487.66 293.32 L 492.00 289.76 L 491.99 271.63 C491.98,254.11 490.60,212.39 489.51,197.00 C488.66,184.86 490.67,191.76 492.43,207.00 C494.31,223.33 497.69,261.36 498.61,276.50 C499.58,292.62 498.89,292.21 512.86,284.99 C534.45,273.83 544.27,264.24 547.58,251.09 C550.52,239.43 548.81,234.59 524.64,186.29 C488.99,115.01 470.41,87.70 451.57,78.88 C439.27,73.13 422.39,73.01 407.00,78.56 C399.72,81.18 380.18,92.31 369.00,100.19 C365.98,102.32 360.86,105.91 357.62,108.16 C336.42,122.91 317.11,143.60 291.44,179.08 C285.30,187.56 284.86,188.50 286.52,189.45 C290.59,191.79 296.39,197.70 297.71,200.86 C299.66,205.52 298.68,205.84 295.06,201.72 C290.81,196.88 286.34,195.00 279.10,195.00 C272.33,195.00 271.86,194.39 274.87,189.45 C277.83,184.58 299.83,155.07 305.38,148.50 C324.37,126.05 343.27,108.99 366.69,93.19 C374.27,88.07 375.21,86.82 370.80,87.67 C360.00,89.77 331.59,101.45 310.24,112.57 C284.65,125.89 276.03,131.60 267.28,140.98 C260.57,148.18 258.49,153.19 258.57,162.00 C258.64,169.53 261.43,184.53 262.94,185.46 C263.38,185.73 265.31,183.61 267.22,180.73 C275.73,167.96 301.60,138.00 304.13,138.00 C304.60,138.00 301.49,142.16 297.21,147.25 C284.41,162.47 277.36,172.86 268.50,189.56 C266.57,193.21 263.63,197.84 261.97,199.85 C260.31,201.86 258.68,205.18 258.35,207.23 C257.86,210.28 256.98,211.41 253.51,213.44 C248.27,216.51 243.84,221.47 240.25,228.29 C237.76,233.01 237.50,234.48 237.50,244.00 C237.50,253.60 237.74,254.96 240.33,259.88 L 243.17 265.27 L 238.19 270.38 C231.26,277.51 229.57,281.16 229.57,289.00 C229.57,296.00 230.75,298.98 237.40,308.85 C242.48,316.40 242.23,318.90 235.75,325.38 C224.52,336.60 211.15,341.41 191.00,341.46 C178.91,341.50 178.27,341.39 171.56,338.21 C163.61,334.45 160.39,331.98 142.69,316.04 C115.91,291.92 100.28,284.44 77.00,284.61 C67.37,284.68 64.44,285.10 58.94,287.15 C42.42,293.35 28.34,305.00 20.29,319.15 C4.97,346.06 8.77,382.19 29.01,402.13 C37.65,410.64 49.95,417.03 61.43,418.99 C75.90,421.46 90.84,416.99 101.34,407.06 C125.40,384.31 115.76,343.94 85.84,342.18 C75.53,341.57 68.09,345.06 64.38,352.23 C62.19,356.46 62.39,363.70 64.77,366.90 C67.30,370.29 70.39,370.34 70.83,367.00 C71.66,360.65 81.50,358.80 87.23,363.92 C90.37,366.72 90.50,367.13 90.50,374.33 C90.50,381.17 90.24,382.14 87.44,385.66 C80.52,394.36 68.15,396.65 58.37,391.04 C46.14,384.03 39.83,368.77 42.95,353.76 C45.54,341.24 53.62,330.38 63.82,325.66 C67.62,323.90 70.28,323.51 78.00,323.57 C86.74,323.63 88.10,323.92 95.00,327.19 C106.06,332.43 114.67,339.05 132.39,355.96 C153.49,376.08 162.54,381.93 175.23,383.63 C177.83,383.98 179.73,384.62 179.47,385.06 C179.20,385.49 176.62,386.62 173.74,387.56 C160.75,391.82 147.86,400.00 137.26,410.72 C131.57,416.47 129.08,420.01 125.60,427.27 C120.57,437.76 119.00,444.10 119.00,454.00 C119.00,477.44 130.86,493.59 148.90,494.69 C154.43,495.03 156.15,494.73 159.50,492.80 C165.84,489.14 170.01,478.71 167.01,474.00 C166.33,472.94 165.65,472.79 164.67,473.50 C158.55,477.91 157.90,478.19 155.35,477.55 C151.34,476.55 146.34,470.96 144.96,465.94 C143.45,460.47 144.94,450.00 148.11,443.77 C150.99,438.15 159.62,429.73 165.58,426.74 C171.14,423.96 182.25,420.00 184.50,420.00 C185.56,420.00 186.01,421.10 186.02,423.75 C186.03,425.81 187.42,431.33 189.12,436.00 C194.70,451.44 195.05,454.81 191.43,458.43 C189.25,460.61 187.63,460.40 184.18,457.50 C182.55,456.12 180.65,455.00 179.97,455.00 C176.53,455.00 174.69,463.58 177.12,468.32 C181.24,476.36 190.99,481.04 199.28,478.95 C208.12,476.73 214.81,468.61 217.11,457.32 C218.19,452.03 218.11,449.23 216.54,437.82 C214.47,422.72 215.09,416.88 219.67,408.28 C221.07,405.65 223.55,400.12 225.19,396.00 C230.84,381.73 237.04,372.31 253.47,353.00 C264.50,340.03 269.48,331.70 270.79,324.00 C271.21,321.52 271.98,319.50 272.50,319.50 C274.26,319.50 274.90,327.66 273.59,333.30 C271.48,342.36 269.27,345.46 247.68,369.64 C235.73,383.03 228.12,397.46 225.20,412.32 C222.63,425.36 224.22,433.18 232.97,450.50 C240.54,465.49 241.60,470.27 238.36,474.89 C236.93,476.93 236.16,477.16 232.36,476.64 C228.11,476.05 228.00,476.11 228.00,478.82 C228.00,480.69 229.15,482.72 231.47,484.97 C234.34,487.75 235.88,488.41 240.42,488.79 C247.60,489.38 253.73,486.03 257.63,479.37 C263.18,469.90 263.73,459.39 259.38,446.00 C254.66,431.48 255.16,420.83 261.12,408.67 C265.54,399.66 267.07,397.81 287.18,377.31 C297.53,366.75 306.00,357.64 306.00,357.06 C306.00,356.47 306.41,356.00 306.92,356.00 C308.82,356.00 304.64,363.85 297.33,374.00 C278.73,399.83 273.28,410.44 270.60,426.03 C268.61,437.65 268.60,442.30 270.55,453.66 C272.04,462.36 272.02,462.86 270.01,468.23 C265.84,479.40 259.57,487.27 235.95,511.00 C217.17,529.87 210.25,540.69 205.88,557.99 C201.21,576.47 205.60,597.75 218.21,617.71 C221.90,623.56 232.07,634.00 234.08,634.00 C234.59,634.00 235.01,632.09 235.01,629.75 ZM 200.72 605.75 C199.57,603.41 197.64,598.12 196.43,594.00 L 194.24 586.50 L 181.67 578.00 C164.72,566.54 151.77,555.59 136.27,539.62 C109.50,512.06 88.64,479.73 74.89,444.50 L 70.21 432.50 L 65.85 431.92 C63.46,431.59 59.31,430.97 56.64,430.54 L 51.78 429.74 L 52.50 433.12 C54.01,440.21 63.72,464.08 70.61,477.63 C93.46,522.52 128.46,562.53 170.00,591.24 C178.73,597.27 200.54,610.00 202.14,610.00 C202.51,610.00 201.88,608.09 200.72,605.75 ZM 291.36 545.25 C290.51,543.19 288.30,539.91 286.43,537.98 C283.22,534.64 283.09,534.25 284.09,530.63 C285.80,524.45 284.35,519.07 279.81,514.72 C276.42,511.49 275.95,510.52 276.50,508.02 C277.46,503.63 274.05,496.68 270.13,495.06 C268.41,494.34 267.00,493.55 267.00,493.30 C267.00,493.05 268.79,489.78 270.99,486.02 C273.18,482.26 275.42,478.02 275.96,476.59 C276.90,474.13 279.00,472.97 279.00,474.91 C279.00,476.79 287.10,485.97 291.30,488.86 C298.03,493.49 307.43,496.32 313.91,495.66 C316.88,495.36 319.98,494.45 320.79,493.64 C322.09,492.34 321.57,491.81 316.38,489.16 C303.49,482.58 297.96,473.61 297.22,458.06 C296.64,446.02 299.24,435.54 305.54,424.48 C310.92,415.04 315.37,409.76 334.75,389.76 C343.14,381.11 350.00,373.57 350.00,373.01 C350.00,372.46 350.43,372.00 350.96,372.00 C351.51,372.00 351.90,375.96 351.87,381.25 C351.79,394.32 354.91,404.98 366.46,431.02 C371.53,442.46 375.00,455.23 375.00,462.48 C375.00,477.18 366.39,493.86 355.63,500.04 C348.49,504.14 343.10,504.10 339.59,499.92 C338.17,498.23 337.00,496.17 337.00,495.35 C337.00,492.67 333.56,494.39 331.70,498.00 C326.51,508.07 335.53,519.48 350.33,521.57 L 355.17 522.25 L 350.83 526.73 C345.77,531.97 338.99,537.12 330.22,542.40 L 323.94 546.18 L 319.91 542.54 C315.45,538.51 314.46,538.51 307.39,542.56 C305.14,543.86 300.95,545.84 298.09,546.96 L 292.90 549.01 L 291.36 545.25 ZM 307.09 531.13 C309.73,528.99 310.27,523.23 308.08,520.59 C304.63,516.44 296.00,520.30 296.00,526.00 C296.00,529.33 299.37,533.00 302.43,533.00 C303.72,533.00 305.82,532.16 307.09,531.13 ZM 342.09 481.13 C343.76,479.78 344.40,478.22 344.40,475.51 C344.40,471.15 342.17,469.00 337.64,469.00 C333.39,469.00 331.00,471.56 331.00,476.10 C331.00,482.32 337.17,485.11 342.09,481.13 ZM 364.32 472.85 C367.14,471.37 367.97,470.06 367.98,467.08 C368.02,462.13 362.73,459.47 357.93,462.04 C354.93,463.64 355.33,469.33 358.63,471.93 C361.72,474.36 361.52,474.32 364.32,472.85 ZM 327.80 459.80 C329.76,457.84 329.28,453.22 327.04,452.51 C324.15,451.60 321.00,453.67 321.00,456.49 C321.00,460.11 325.36,462.24 327.80,459.80 ZM 364.17 451.35 C366.25,449.47 366.59,444.99 364.80,443.20 C360.93,439.33 353.55,444.39 356.08,449.18 C358.27,453.35 361.12,454.11 364.17,451.35 ZM 339.17 446.35 C341.25,444.47 341.59,439.99 339.80,438.20 C337.15,435.55 331.00,438.18 331.00,441.97 C331.00,443.89 334.55,448.00 336.21,448.00 C336.83,448.00 338.17,447.26 339.17,446.35 ZM 316.17 437.35 C319.80,434.06 317.88,429.00 313.00,429.00 C308.20,429.00 306.35,433.52 309.65,437.17 C311.71,439.44 313.79,439.50 316.17,437.35 ZM 355.69 432.83 C359.98,428.79 357.53,422.00 351.77,422.00 C347.60,422.00 345.00,424.54 345.00,428.60 C345.00,434.45 351.31,436.94 355.69,432.83 ZM 331.42 420.09 C336.01,415.02 330.07,406.76 324.46,410.43 C321.21,412.57 320.35,416.36 322.41,419.51 C324.41,422.56 328.92,422.85 331.42,420.09 ZM 242.65 540.17 C238.85,535.97 242.57,529.00 248.61,529.00 C252.43,529.00 254.00,530.61 254.00,534.53 C254.00,540.57 246.42,544.34 242.65,540.17 ZM 263.65 536.17 C261.20,533.45 261.64,530.21 264.92,526.92 C268.17,523.68 271.99,523.13 274.43,525.57 C276.87,528.01 276.32,531.83 273.08,535.08 C269.74,538.42 266.07,538.84 263.65,536.17 ZM 400.00 309.11 C396.98,308.14 392.70,306.40 390.50,305.26 C386.52,303.19 380.25,297.42 381.08,296.58 C381.32,296.34 384.67,297.68 388.51,299.55 C396.14,303.26 406.55,306.00 413.00,306.00 C419.48,306.00 431.00,303.06 436.93,299.90 C443.64,296.31 445.07,296.23 441.92,299.60 C433.02,309.12 413.64,313.52 400.00,309.11 ZM 405.50 285.44 C390.11,281.68 378.98,266.25 380.25,250.41 C381.18,238.88 387.77,229.27 398.39,223.96 C403.40,221.46 405.49,221.00 411.91,221.01 C416.08,221.01 421.13,221.46 423.11,222.01 C436.26,225.67 447.01,241.94 445.71,256.24 C443.88,276.39 424.91,290.17 405.50,285.44 ZM 401.99 267.51 C403.58,266.68 406.14,263.76 407.69,261.01 C409.24,258.25 410.82,256.00 411.21,256.00 C411.61,256.00 412.43,256.94 413.05,258.09 C413.66,259.24 415.76,261.94 417.70,264.09 C421.35,268.12 424.33,268.96 428.03,266.98 C432.97,264.34 439.39,246.35 437.16,241.44 C435.91,238.70 432.90,238.24 430.68,240.46 C429.88,241.26 428.19,244.41 426.93,247.46 C425.67,250.51 424.28,253.00 423.84,253.00 C423.40,253.00 422.29,251.76 421.36,250.25 C416.56,242.42 415.31,240.90 413.24,240.36 C409.88,239.49 406.67,242.14 403.50,248.42 C401.94,251.49 400.33,254.00 399.91,254.00 C399.50,254.00 397.71,250.85 395.93,247.00 C393.26,241.21 392.30,240.00 390.33,240.00 C386.55,240.00 385.45,243.68 387.01,251.21 C389.21,261.89 392.85,267.35 398.80,268.92 C398.96,268.96 400.40,268.33 401.99,267.51 ZM 248.60 258.79 C245.93,254.71 244.00,247.91 244.00,242.53 C244.00,235.89 248.46,226.63 254.11,221.52 C259.94,216.26 261.31,216.97 262.40,225.83 C263.52,234.96 261.22,246.19 256.49,254.74 C252.93,261.17 250.86,262.24 248.60,258.79 ZM 259.55 238.53 C261.45,233.98 261.40,233.66 258.80,234.34 C257.59,234.66 256.02,234.43 255.30,233.84 C254.35,233.05 253.55,233.13 252.34,234.13 C251.04,235.20 250.58,235.22 250.25,234.25 C249.47,231.92 248.00,232.98 248.00,235.88 C248.00,239.45 250.38,241.76 252.37,240.11 C253.41,239.25 254.04,239.34 254.99,240.49 C256.90,242.79 257.96,242.33 259.55,238.53 ZM 365.00 215.82 C365.00,213.28 370.52,205.59 375.58,201.10 C387.69,190.33 405.84,186.50 420.41,191.65 C424.53,193.10 431.48,197.86 430.66,198.67 C430.40,198.93 427.18,198.21 423.49,197.07 C411.42,193.34 396.48,194.68 384.95,200.52 C382.19,201.92 376.58,206.26 372.47,210.16 C368.36,214.06 365.00,216.61 365.00,215.82 Z" fill="rgb(246,246,245)"/>
</g>
</svg>