<svg version="1.1" id="Layer_1" xmlns="http://www.w3.org/2000/svg" xmlns:xlink="http://www.w3.org/1999/xlink" x="0px" y="0px"
	 width="100%" viewBox="0 0 1024 1024" enable-background="new 0 0 1024 1024" xml:space="preserve">
<path fill="#704214" opacity="1.000000" stroke="none" 
	d="
M201.731171,543.896729 
	C193.853577,504.153961 217.353439,466.751099 255.777115,458.508209 
	C276.149261,454.137848 294.165314,461.121277 310.698792,472.761536 
	C321.652924,480.473694 330.661530,490.407379 340.827301,499.017761 
	C349.452087,506.322937 358.536926,512.815796 370.396912,513.269958 
	C389.660156,514.007568 407.024506,509.381866 420.761810,494.850830 
	C423.411285,492.048309 424.044312,489.308594 421.797363,485.940857 
	C419.673981,482.758240 417.669861,479.475800 415.873474,476.098877 
	C409.618439,464.340302 411.384491,452.379608 421.092102,443.325165 
	C424.280426,440.351379 424.852142,438.080933 422.967773,433.983185 
	C415.120239,416.917603 420.750946,398.164948 436.386841,388.059509 
	C438.041687,386.989960 439.148224,385.753479 439.603058,383.852295 
	C439.950958,382.397980 440.049286,380.678406 440.906921,379.585693 
	C445.639435,373.556091 444.084869,367.272339 442.410706,360.704895 
	C441.102600,355.573486 440.452911,350.248932 439.834259,344.972260 
	C438.516479,333.731934 442.437988,324.405792 450.548004,316.653168 
	C460.437073,307.199860 472.307861,300.777985 484.227356,294.422882 
	C506.037140,282.794525 528.463562,272.550812 552.526001,266.582062 
	C562.050415,264.219543 571.457153,261.883392 580.653564,258.315033 
	C592.642456,253.663208 605.307312,252.570648 618.006714,254.953400 
	C629.384338,257.088135 638.684509,263.075867 646.106628,271.914948 
	C659.343811,287.679169 670.331055,304.937317 679.933777,323.110260 
	C693.865662,349.476166 707.977844,375.763824 719.735046,403.195679 
	C727.782837,421.972534 723.278809,437.420441 707.017273,449.976685 
	C700.239258,455.210297 692.552246,458.859344 685.179688,463.064606 
	C681.273376,465.292725 677.268066,467.368896 673.494080,469.803070 
	C663.438477,476.288849 660.744019,483.098602 662.724731,494.866455 
	C664.778625,507.068634 668.898560,518.690491 672.199768,530.544739 
	C677.566040,549.814270 672.058838,563.817932 654.990173,574.518433 
	C646.710449,579.709106 646.750183,579.684998 651.902222,588.178955 
	C656.611206,595.942444 663.045654,601.837341 671.064758,605.983521 
	C682.400574,611.844482 692.389038,607.991455 696.671936,595.977722 
	C700.362305,585.626038 700.600281,574.782288 700.725098,563.938477 
	C700.890198,549.594238 703.327087,535.840149 710.775940,523.224731 
	C723.349304,501.930573 749.028931,493.134644 770.783691,502.899780 
	C784.040161,508.850250 791.311707,520.484558 790.330627,534.174316 
	C789.296509,548.603699 774.449707,559.071899 762.028381,554.117676 
	C759.501770,553.109985 757.270081,551.675171 755.877319,549.245300 
	C753.510559,545.116516 755.130554,542.097717 759.850647,541.770264 
	C764.844177,541.423889 768.194519,538.814331 768.409119,535.104309 
	C768.615601,531.535706 764.333862,527.011780 760.094727,526.319519 
	C753.158508,525.186768 745.135925,529.389771 740.916016,536.512451 
	C737.982300,541.464233 736.475159,546.828369 736.242554,552.631714 
	C735.721924,565.619629 737.550110,578.590759 736.333496,591.583069 
	C734.773865,608.238037 730.405884,623.791443 717.897827,635.737854 
	C702.008240,650.913940 683.035278,652.410339 662.965637,646.710266 
	C655.784363,644.670654 648.920471,641.490295 642.486450,637.544250 
	C641.263794,636.794434 640.047546,635.696289 638.291077,636.294983 
	C637.160461,638.332031 638.414917,640.154541 638.960999,641.972656 
	C650.256165,679.578003 631.703247,733.639343 588.711792,752.945312 
	C578.200256,757.665710 567.112793,760.258545 555.675232,759.126099 
	C540.736755,757.646851 523.886841,746.292053 525.659058,726.893433 
	C526.757385,714.870972 536.863770,705.792847 548.617249,706.689514 
	C554.661499,707.150696 560.145447,711.985962 560.321533,717.090271 
	C560.438843,720.489746 559.094482,722.541138 555.510315,720.815247 
	C551.264465,718.770752 548.684509,720.470093 547.162292,724.186829 
	C545.541992,728.143188 548.519592,730.033813 551.414001,731.458496 
	C556.671997,734.046631 561.862793,732.642090 566.848022,730.496765 
	C578.449646,725.504395 586.955872,717.221191 593.112000,706.192566 
	C605.385193,684.205200 603.017151,654.543579 587.133911,635.228882 
	C586.749084,634.760925 586.119568,634.494263 585.547485,634.094055 
	C583.782471,635.964539 583.829529,638.240234 583.412109,640.286499 
	C579.544312,659.249451 570.768250,674.883301 553.539246,684.895386 
	C550.652893,686.572693 547.813416,688.411438 545.748596,691.084473 
	C530.729370,710.526978 510.356964,722.688721 488.618469,732.882385 
	C479.277802,737.262390 469.654755,741.048584 460.106659,744.974915 
	C453.610260,747.646301 447.405609,750.854980 441.479218,754.593201 
	C427.004456,763.723572 420.891174,777.591675 419.335175,794.001343 
	C419.212097,795.299561 419.097504,796.598511 418.985138,797.829712 
	C416.358215,799.047913 414.990814,797.157166 413.560303,795.999634 
	C399.057373,784.264587 391.992279,768.277100 388.777710,750.529114 
	C384.041016,724.377441 393.983185,702.911072 411.413116,684.154968 
	C420.373596,674.512695 430.899780,666.431702 439.285980,656.218201 
	C440.765808,654.415955 442.259430,652.613586 443.590057,650.702271 
	C450.127197,641.312500 454.525818,631.822205 451.058350,619.551392 
	C448.028076,608.827759 450.288696,597.751892 453.206146,587.035339 
	C453.834381,584.727539 455.235840,582.448975 454.361938,579.906738 
	C448.338287,579.628662 444.884796,581.613464 442.801208,586.670410 
	C439.290283,595.191589 439.209167,603.791870 442.184509,612.532471 
	C445.092651,621.075684 447.444977,629.648621 445.297211,638.918823 
	C443.117096,648.328613 437.903290,654.808655 428.802948,658.002869 
	C420.685822,660.852051 412.242828,656.631226 410.593567,649.069275 
	C409.962006,646.173279 409.690308,644.040771 414.068634,645.116394 
	C419.069641,646.345154 423.258698,641.449280 422.001801,636.217407 
	C421.136414,632.615234 419.324585,629.435059 417.402161,626.289612 
	C411.083801,615.951538 406.122864,605.121887 405.718475,592.713989 
	C405.669739,591.219482 405.780945,589.502563 403.589966,589.455322 
	C401.418396,589.408447 400.795776,591.046875 400.523682,592.750183 
	C399.293549,600.451355 400.907501,608.011597 401.770081,615.606018 
	C403.064117,626.999390 400.725189,637.177612 391.737183,645.026306 
	C380.960571,654.436829 363.615540,649.481140 360.228119,636.107117 
	C359.503967,633.247986 359.670654,630.484070 360.735016,627.774414 
	C362.378021,623.591797 364.814240,622.843750 368.345978,625.483765 
	C370.087372,626.785400 371.731506,628.578247 374.108002,627.418213 
	C376.786835,626.110596 376.766174,623.472229 376.762482,620.906128 
	C376.757324,617.276001 375.170990,614.120361 373.816864,610.916626 
	C371.988190,606.590149 370.948059,602.054688 369.923065,597.508545 
	C369.261688,594.575256 367.536499,592.919800 364.555695,593.861633 
	C347.662170,599.198975 334.569641,608.035278 331.719879,625.685852 
	C331.063232,629.752991 331.324463,633.665100 332.591583,637.505066 
	C335.444458,646.150330 342.205414,647.618896 350.286255,641.192688 
	C353.914764,643.174194 354.191437,646.655762 353.732910,650.110291 
	C352.344086,660.573914 342.372223,666.990845 330.996277,664.946533 
	C318.697906,662.736450 308.589783,652.083130 305.682983,638.267883 
	C299.964813,611.090698 311.603668,585.398926 337.009338,568.710754 
	C343.267914,564.599670 350.111481,561.607300 356.604584,558.317139 
	C356.431763,556.311096 355.087372,556.033997 354.099792,555.737549 
	C340.686768,551.712402 330.631714,542.758240 320.882782,533.316711 
	C311.324768,524.059998 302.737244,513.731750 291.268890,506.579590 
	C284.427979,502.313354 277.395203,498.591522 269.117554,498.160095 
	C253.608688,497.351776 243.318237,503.406616 236.914978,517.620300 
	C230.842728,531.099243 231.157455,544.236511 240.843826,556.088135 
	C247.458450,564.181396 258.181610,566.906860 267.013550,563.353088 
	C276.240479,559.640381 280.800171,550.004395 277.348419,541.433228 
	C275.771484,537.517456 272.984619,535.244080 268.602783,535.189758 
	C264.650055,535.140808 262.105103,536.655762 260.780670,540.688904 
	C259.582733,544.336975 256.219299,544.353394 253.570267,541.039124 
	C249.677704,536.169067 249.989441,527.212463 254.455429,521.917053 
	C260.240387,515.057678 267.902710,512.620300 276.473328,514.223328 
	C295.292236,517.743225 306.963715,534.930054 303.831970,553.877869 
	C299.246002,581.623901 273.888794,597.911865 245.726807,590.683533 
	C221.559479,584.480469 207.609970,568.136597 201.731171,543.896729 
M649.682983,391.500214 
	C649.676147,385.501770 649.672424,379.503326 649.661560,373.504883 
	C649.647949,366.003876 649.645447,366.003906 642.033569,365.231232 
	C633.454163,364.360382 627.360718,357.657013 627.760498,349.529510 
	C628.186768,340.862732 633.469788,336.275330 643.304565,336.640259 
	C647.072388,336.779999 647.983826,335.330475 647.759827,332.012451 
	C646.941223,319.889832 646.393188,307.746094 645.387573,295.639801 
	C644.479065,284.702789 638.569153,276.976959 629.359436,271.160187 
	C618.115356,264.058472 605.883972,263.678284 593.630249,265.884277 
	C570.506348,270.047119 550.567078,281.545258 531.868103,295.177887 
	C508.961090,311.878387 491.457794,333.723969 474.976715,356.450012 
	C468.971405,364.730774 469.050262,364.760742 475.922943,371.983765 
	C478.757507,374.962860 480.941803,378.248749 480.882416,382.894379 
	C477.703735,382.471130 476.908020,380.145264 475.395844,378.752045 
	C471.462158,375.127930 467.268585,372.344604 461.563782,373.211945 
	C455.386993,374.151062 449.344696,381.318878 451.157959,386.001495 
	C455.100586,396.183044 454.876740,406.539520 452.980835,416.998535 
	C450.854523,428.728851 446.139801,438.872955 435.460449,445.422821 
	C432.790222,447.060486 430.348083,449.184479 428.117859,451.403320 
	C421.849335,457.639862 420.976898,464.650055 425.435028,472.253815 
	C427.032837,474.979034 428.891876,477.558777 430.734375,480.131409 
	C436.433777,488.089294 436.819977,496.423798 432.649017,505.124359 
	C429.042755,512.647034 423.365448,518.471069 417.281036,523.981140 
	C409.503876,531.024231 401.335999,537.711121 394.808655,545.987671 
	C380.011566,564.749878 372.736603,585.019653 382.784485,608.648743 
	C384.201355,611.980713 385.003143,615.628479 385.687256,619.206970 
	C387.285065,627.564270 383.783386,633.427185 375.782135,636.343811 
	C374.621643,636.766846 373.052734,636.763306 372.991852,638.582581 
	C379.249878,641.781189 386.085052,639.750427 389.584045,633.608215 
	C393.245850,627.180237 393.430542,620.264221 392.080261,613.236511 
	C388.427704,594.226685 391.641632,577.160217 405.774353,562.975464 
	C408.703949,560.035095 411.754944,556.987671 413.810364,553.444458 
	C421.902222,539.495544 432.625061,527.621826 442.909454,515.380859 
	C447.592560,509.806793 450.505920,503.397125 452.168762,496.237823 
	C452.921661,492.996155 451.492493,489.795685 452.542603,486.537170 
	C457.499451,489.761841 459.534332,495.265808 458.907867,501.846863 
	C457.942108,511.991943 452.706543,519.954895 446.415009,527.458374 
	C438.401459,537.015564 429.054596,545.569031 423.240509,556.806274 
	C413.034882,576.531372 411.563812,596.514221 422.574585,616.492920 
	C427.752289,625.887756 434.061005,634.904541 429.269867,647.174011 
	C433.263885,644.964050 434.603821,642.098816 435.603729,639.090881 
	C437.691681,632.809814 436.803528,626.616211 434.792267,620.482300 
	C432.927948,614.796448 430.923828,609.166870 430.632568,603.072998 
	C429.867279,587.061462 436.194000,573.995911 446.823425,562.506775 
	C454.673859,554.021423 464.033508,547.279419 472.556000,539.575073 
	C481.524750,531.467224 488.789795,522.380981 490.990509,510.066956 
	C491.143555,509.210510 491.324310,508.002960 493.039246,508.103394 
	C494.675171,510.351868 495.310272,513.001831 495.305359,515.905090 
	C495.288239,525.990906 491.040283,534.584229 485.898773,542.877014 
	C479.582764,553.064270 472.322968,562.701050 467.409363,573.711304 
	C456.882904,597.298645 455.185944,620.933411 467.860870,644.339722 
	C472.499878,652.906433 480.115021,657.445129 489.782227,658.756287 
	C481.410126,653.172852 477.615265,644.992676 475.534882,635.550842 
	C472.158630,620.227356 475.963013,606.136719 482.647400,592.626343 
	C488.423065,580.952637 497.668091,571.862915 506.794189,562.860474 
	C517.530457,552.269653 527.467285,541.182434 534.409912,527.625366 
	C536.054993,524.412842 538.500000,521.536438 540.932434,518.824219 
	C542.810242,516.730408 544.847107,514.434448 548.095947,514.300110 
	C548.961792,516.527100 547.447449,517.710266 546.750122,519.125610 
	C543.733093,525.249268 540.512756,531.278564 537.677795,537.484436 
	C534.644531,544.124207 533.505310,551.179932 534.547974,558.449768 
	C535.639954,566.063538 537.861389,573.384033 540.767883,580.501770 
	C545.048157,590.984009 549.752625,601.319641 553.477356,611.996460 
	C560.596741,632.403992 557.161011,651.108887 542.535583,667.259644 
	C534.223022,676.439148 527.290283,677.503784 516.271606,672.259338 
	C516.081726,672.168945 515.703491,672.474182 515.164734,672.698059 
	C515.044983,675.989319 516.807129,678.189331 519.406921,679.975525 
	C524.490540,683.468262 530.097900,683.512695 535.730835,682.125366 
	C555.779785,677.187256 567.063232,663.235474 572.508484,644.369507 
	C578.198242,624.656128 576.006287,604.850281 571.180237,585.175598 
	C567.932861,571.936707 564.541565,558.620789 566.692261,544.778931 
	C568.747925,531.548157 574.203796,520.627991 587.674438,515.551025 
	C589.440918,514.885254 591.317017,514.057434 593.052917,515.453735 
	C592.904907,517.394226 591.528198,517.914062 590.532166,518.721375 
	C583.667053,524.285950 579.309387,531.441833 577.422607,540.009644 
	C575.159851,550.284790 575.939392,560.497375 578.528076,570.643921 
	C582.066711,584.513611 585.702454,598.378113 585.341064,612.880432 
	C585.297791,614.613464 585.710938,616.144714 586.919250,617.468567 
	C592.490112,623.571960 596.063904,630.964050 600.047852,638.075806 
	C612.277100,659.906006 614.628235,682.526855 604.222839,705.626831 
	C595.785889,724.356873 582.464050,737.834839 561.355347,741.734070 
	C550.995300,743.647827 540.812439,736.776917 539.137817,727.141663 
	C538.580505,723.934814 540.453491,721.089478 540.183533,717.823364 
	C536.140198,720.326050 534.501282,723.036133 534.145630,727.554382 
	C533.216553,739.357422 541.790710,748.326416 554.944763,749.761230 
	C570.238281,751.429565 583.633545,746.369751 595.804077,737.952454 
	C621.402649,720.248047 631.794922,694.248779 632.358154,664.431885 
	C632.714783,645.552856 626.783752,627.982605 614.772400,612.480530 
	C599.855408,593.228394 592.464417,570.973328 592.776245,546.459900 
	C592.894714,537.145935 595.948792,528.791077 602.785461,522.156555 
	C604.363525,520.625183 605.960388,518.752258 608.496155,519.257324 
	C609.177612,520.750977 608.361206,521.496887 607.766052,522.241211 
	C601.956604,529.506531 599.816345,537.908997 600.340210,547.019104 
	C601.073669,559.774597 604.318115,571.980835 609.320557,583.680603 
	C622.167236,613.726562 643.481018,633.728333 676.556213,639.257568 
	C692.982361,642.003601 709.026917,634.510315 717.532715,620.292053 
	C723.173889,610.862183 726.497375,600.573547 726.693359,589.518860 
	C726.894165,578.191284 726.417236,566.847900 726.765747,555.527771 
	C727.154968,542.882385 729.977478,531.027222 740.661743,522.632996 
	C749.087830,516.012939 762.817566,515.727051 770.510498,521.987854 
	C774.083435,524.895630 775.767822,528.800720 776.206604,533.274902 
	C776.642517,537.719360 775.047729,541.612610 771.991882,545.519897 
	C776.046326,544.509583 778.045349,542.141663 779.525330,539.272339 
	C784.101257,530.400696 781.598267,520.764404 773.165955,514.555237 
	C758.026794,503.407440 735.336304,506.982269 722.938904,522.300171 
	C714.006348,533.337158 711.118652,546.376099 710.390076,560.015015 
	C709.839661,570.319580 709.708862,580.651978 708.261841,590.881287 
	C705.218140,612.398621 683.449524,627.690308 661.467529,611.918030 
	C651.626099,604.856750 643.894592,596.075256 639.035950,584.984863 
	C630.898560,566.410645 627.782898,547.176453 631.502991,526.966370 
	C632.253967,522.886719 633.757019,522.806763 636.772461,524.055115 
	C646.801025,528.207031 651.507141,536.013611 652.310791,546.540588 
	C652.552490,549.706299 652.130005,553.025452 654.147278,556.241211 
	C658.349670,552.324036 659.865906,547.759888 660.012512,542.591553 
	C660.184631,536.520569 658.941101,530.680847 657.151367,524.931458 
	C651.275146,506.054779 647.483948,486.949707 648.872070,466.964142 
	C650.593872,442.175110 649.421387,417.323181 649.682983,391.500214 
M371.140808,523.459778 
	C361.142822,523.251770 352.308990,519.688965 344.154480,514.133545 
	C335.842773,508.471130 328.826080,501.330811 321.567261,494.460663 
	C313.926178,487.228699 305.916077,480.458221 296.666962,475.318665 
	C285.147186,468.917328 272.890839,465.363251 259.719177,467.829102 
	C225.715759,474.194885 203.635284,507.314087 210.465622,541.219055 
	C215.790909,567.653137 237.423630,584.799744 262.901123,582.780640 
	C282.584167,581.220764 297.027740,563.623657 294.680328,544.062988 
	C292.923248,529.421326 279.247406,520.055420 266.230713,524.971252 
	C273.017365,526.030396 278.917389,528.141052 282.998474,533.705322 
	C291.340149,545.078674 287.481476,562.481201 274.957336,569.789856 
	C260.100708,578.459656 241.206238,573.904419 231.460159,559.198364 
	C224.700897,548.999329 222.990799,537.773743 224.677826,525.770508 
	C227.504074,505.661621 241.236694,490.803864 261.106201,488.220215 
	C274.766937,486.443909 286.995331,491.530518 298.032196,499.369385 
	C309.494995,507.510803 319.565796,517.264771 329.166840,527.453735 
	C342.307800,541.399353 357.870453,548.670410 377.340485,546.814758 
	C380.950684,546.470642 383.580566,545.559082 385.755280,542.535950 
	C390.732483,535.616943 396.547791,529.436951 403.098694,523.942200 
	C405.528107,521.904419 407.662415,519.514832 409.931305,517.285645 
	C397.314453,521.003052 385.135925,524.863831 371.140808,523.459778 
M657.296204,330.397095 
	C658.249329,348.507141 659.510254,366.607513 660.078186,384.729645 
	C660.797974,407.693146 661.678955,430.660889 661.411560,453.647949 
	C661.389648,455.539978 660.748352,457.663391 662.398682,459.304810 
	C666.874023,457.529633 667.670532,456.742676 667.618774,452.606110 
	C667.531372,445.618835 667.087097,438.636536 666.963074,431.649109 
	C666.614624,412.012360 666.314026,392.378265 664.805298,372.781158 
	C664.309021,366.333588 663.057312,359.888275 664.224060,353.352356 
	C671.175354,385.584229 672.267944,418.527222 675.708069,452.076385 
	C687.013062,446.425934 697.745117,441.777313 705.416748,432.547729 
	C709.628296,427.480774 711.346497,421.554718 709.838623,414.840179 
	C709.100098,411.551788 707.899353,408.474365 706.569031,405.436035 
	C693.940186,376.591675 679.311218,348.723877 664.976379,320.717072 
	C662.992126,316.840424 661.353027,312.563416 657.287903,309.050262 
	C657.287903,316.295288 657.287903,322.858307 657.296204,330.397095 
M491.660126,710.304688 
	C486.601257,713.273438 480.998596,714.953918 475.596344,717.113281 
	C472.956879,718.168335 471.078705,718.124023 470.726898,714.653748 
	C470.385101,711.282104 468.497711,708.751404 465.825073,706.863159 
	C463.184723,704.997681 462.461182,702.969238 463.315308,699.630371 
	C464.693237,694.244019 464.407715,688.772522 458.916901,685.504150 
	C456.127625,683.843872 455.537506,682.123962 456.091644,679.018250 
	C456.762329,675.259338 455.698608,671.651123 452.106140,669.523682 
	C448.480865,667.376831 445.062073,668.356873 441.895477,670.734619 
	C440.964355,671.433838 440.010162,672.117188 439.162384,672.910217 
	C429.654327,681.804382 420.712280,691.255981 413.673035,702.231506 
	C402.611511,719.478699 397.467102,737.923096 404.295044,758.222229 
	C406.046326,763.428833 407.877014,768.678284 412.128296,773.479797 
	C417.836029,755.731689 429.530975,744.445496 445.139618,736.893555 
	C451.424316,733.852844 457.871033,731.116821 464.362274,728.540100 
	C474.571442,724.487549 484.855682,720.627869 494.428253,715.159607 
	C495.822754,714.362976 497.946075,713.680664 497.232605,711.640320 
	C496.462524,709.438049 494.517273,708.876587 491.660126,710.304688 
M314.254333,614.672607 
	C312.856964,620.695007 311.993835,626.731201 313.312561,632.908691 
	C315.208588,641.790344 318.146606,650.005798 327.283813,653.998169 
	C329.609711,655.014404 332.228424,656.523743 335.044189,654.346130 
	C327.588654,648.361511 326.442444,646.874817 324.363892,640.096436 
	C320.711182,628.184875 322.844666,617.070312 329.325348,606.693970 
	C337.319305,593.894653 349.666992,587.494690 363.751923,583.828003 
	C366.427216,583.131531 368.962830,582.545471 369.603760,579.309570 
	C370.216370,576.216431 370.947754,573.145447 371.504150,570.042725 
	C372.146606,566.460022 370.537476,564.779297 367.040558,565.814514 
	C362.746613,567.085571 358.441071,568.481201 354.378571,570.342407 
	C334.984283,579.227905 319.777374,592.059753 314.254333,614.672607 
M505.273590,304.774689 
	C511.746613,297.867004 519.491943,292.389862 526.357178,285.827545 
	C520.375244,288.246094 514.480530,290.828430 508.642578,293.533417 
	C491.237457,301.598083 474.363953,310.621857 459.123322,322.367584 
	C450.107178,329.316254 447.741058,340.242737 452.718872,351.599426 
	C463.243408,338.101471 474.163696,325.376404 487.690277,313.754974 
	C487.923004,317.419189 486.227936,318.498138 485.097504,319.847534 
	C475.047241,331.844177 464.875183,343.748383 457.161469,357.476318 
	C456.095581,359.373260 454.501434,361.209839 455.938232,364.695435 
	C471.189850,343.344940 486.459381,323.034882 505.273590,304.774689 
M518.327271,641.126160 
	C512.773193,642.192444 510.404449,646.365051 513.361023,650.023499 
	C514.772888,651.770508 516.664429,652.858582 519.044739,652.163086 
	C521.546326,651.432251 522.961426,649.518433 523.226257,647.091187 
	C523.551575,644.108826 522.084229,642.028687 518.327271,641.126160 
M479.054688,691.488037 
	C476.563599,694.676392 477.457855,697.361023 480.373291,699.631531 
	C482.522949,701.305603 484.507202,700.425720 486.164001,698.796753 
	C488.363434,696.634277 488.595520,693.977722 486.826721,691.568726 
	C484.790710,688.795776 482.171265,688.658447 479.054688,691.488037 
M509.895599,588.318481 
	C511.562622,585.037598 510.732880,582.487976 507.456329,580.935242 
	C504.787201,579.670288 502.611755,580.499695 501.208160,583.121948 
	C499.804504,585.744324 500.488892,588.029541 502.745117,589.694275 
	C505.094757,591.427917 507.415039,590.885132 509.895599,588.318481 
M440.619965,406.618683 
	C439.233276,402.922211 444.832367,399.996887 441.919891,396.077301 
	C434.482452,398.148895 432.462463,404.892426 437.628479,410.071320 
	C439.309998,409.885437 440.224945,408.862671 440.619965,406.618683 
M527.615906,597.955322 
	C526.907959,600.854675 528.362671,602.692993 530.678101,604.050049 
	C532.371338,605.042542 533.907837,604.471619 535.169861,603.228333 
	C537.225830,601.202942 537.699402,598.701233 535.606812,596.659790 
	C533.076355,594.191101 530.280151,594.437134 527.615906,597.955322 
M542.734619,633.147583 
	C539.987000,633.805359 538.767944,635.495422 539.614502,638.249817 
	C540.186096,640.109802 541.487000,641.466309 543.608459,641.315552 
	C545.822205,641.158264 547.385193,639.957764 547.551331,637.622253 
	C547.751099,634.815308 546.266235,633.324890 542.734619,633.147583 
M646.614624,560.018433 
	C646.143433,557.043396 645.672302,554.068359 645.140198,550.708313 
	C640.371460,556.352722 640.210571,558.203918 643.663025,563.732666 
	C645.361023,563.437866 646.083374,562.204956 646.614624,560.018433 
M639.495972,539.471252 
	C639.820435,542.847229 640.144836,546.223206 640.493530,549.851868 
	C645.136658,546.295044 645.877136,541.771851 642.768921,538.373108 
	C641.452576,536.933777 640.388672,536.550842 639.495972,539.471252 
M438.758148,424.700836 
	C435.947052,427.090698 434.695618,422.864685 432.256165,422.951263 
	C430.890015,427.143188 433.477203,429.010162 436.038513,431.160767 
	C438.246338,428.786682 439.900024,426.606354 440.146240,423.656738 
	C439.891907,423.742706 439.621674,423.799530 439.389496,423.926117 
	C439.259491,423.996948 439.192596,424.183502 438.758148,424.700836 
M487.361023,642.351807 
	C487.762726,644.679077 489.116333,645.911560 491.494873,645.591614 
	C492.995880,645.389648 493.725067,644.260742 493.764221,642.763611 
	C493.806824,641.137878 493.286407,639.753540 491.574097,639.304199 
	C489.517059,638.764343 487.991882,639.425232 487.361023,642.351807 
M544.853455,619.374695 
	C546.068054,617.472778 545.641479,615.874878 543.810608,614.718811 
	C542.598389,613.953308 541.267212,613.949097 540.168884,615.034729 
	C539.063660,616.127197 539.089233,617.461975 539.842346,618.672974 
	C540.931274,620.423950 542.393799,621.279297 544.853455,619.374695 
M515.303711,614.976257 
	C517.141418,615.770081 518.577393,615.301331 519.194763,613.390442 
	C519.668335,611.924683 518.638672,610.932495 517.507202,610.193176 
	C516.430786,609.489807 515.319214,609.540710 514.401062,610.497437 
	C512.970093,611.988464 513.213562,613.394653 515.303711,614.976257 
M517.252136,697.545959 
	C518.053284,695.702332 517.530396,694.373291 515.654602,693.660645 
	C514.444946,693.201111 513.390564,693.544800 512.686707,694.635986 
	C512.012512,695.681091 511.979034,696.833252 512.716309,697.838440 
	C513.957764,699.531128 515.388306,699.417419 517.252136,697.545959 
M491.479279,604.627319 
	C494.052795,604.406006 495.009247,603.016663 493.958557,600.678650 
	C493.246887,599.095032 491.551819,598.638977 490.278564,599.677124 
	C488.312103,601.280518 488.851990,603.048523 491.479279,604.627319 
M540.551453,654.888306 
	C539.402161,652.719238 537.809570,651.928284 535.950684,653.918274 
	C534.758301,655.194824 535.145508,656.898987 536.533936,657.772888 
	C538.949463,659.293152 540.108582,657.852539 540.551453,654.888306 
M503.758362,680.640381 
	C503.182404,678.657776 501.975433,677.712769 500.155212,679.088501 
	C498.752350,680.148804 498.726929,681.830139 500.143341,682.897949 
	C501.979858,684.282410 503.160492,683.267761 503.758362,680.640381 
M486.255310,627.225098 
	C488.237122,625.968384 488.492554,624.324097 486.867279,622.735168 
	C485.934875,621.823547 484.500153,622.132019 483.831543,623.245972 
	C482.623291,625.259033 483.297424,626.712646 486.255310,627.225098 
M460.773895,659.166260 
	C460.633789,657.230225 459.919403,655.862000 457.729248,656.873535 
	C456.605316,657.392578 456.171936,658.688599 456.859283,659.799500 
	C458.011444,661.661621 459.372314,661.640381 460.773895,659.166260 
z"/>
<path fill="#704214" opacity="1.000000" stroke="none" 
	d="
M750.678711,683.713013 
	C781.598145,643.467712 800.507568,598.488586 807.415283,548.623413 
	C813.571777,504.181183 811.397827,460.178558 796.705994,417.492096 
	C774.999329,354.424286 735.772644,304.882019 679.501892,268.984711 
	C645.007385,246.979294 607.323547,232.943314 566.889587,227.635727 
	C493.607208,218.016312 425.998993,234.248947 365.621063,276.982269 
	C306.369568,318.918335 267.087006,374.932373 251.385376,446.514160 
	C251.018509,448.186737 250.844452,449.830719 249.005737,450.572479 
	C248.542999,450.759125 248.076218,450.938629 247.602386,451.094330 
	C242.590286,452.741058 237.576385,454.382324 232.449295,456.062347 
	C230.973602,452.398895 232.547180,449.190857 233.191040,446.075348 
	C246.773041,380.354553 280.356354,326.359955 330.381531,282.363281 
	C373.977661,244.020859 424.703888,220.200729 482.041534,211.040909 
	C518.372192,205.237030 554.547913,206.533554 590.666260,214.274857 
	C627.793396,222.232391 662.473694,235.972778 693.900940,257.000244 
	C763.130432,303.320587 806.194763,367.462097 822.455322,449.393005 
	C827.676453,475.700012 829.082275,502.248444 827.125061,528.881104 
	C821.647095,603.422119 793.657043,668.006348 741.118896,721.703491 
	C704.798096,758.825623 662.622192,786.421082 613.010193,802.297607 
	C579.366089,813.064148 544.823853,817.555542 509.600098,816.065186 
	C483.584320,814.964539 457.975128,810.825562 433.028473,803.101135 
	C425.734009,800.842529 425.671387,800.810303 427.257996,793.336670 
	C427.900360,790.310852 427.290588,786.927612 429.351257,784.608215 
	C557.976196,819.300171 665.361267,787.264160 750.678711,683.713013 
z"/>
<path fill="#704214" opacity="1.000000" stroke="none" 
	d="
M383.454956,765.538452 
	C384.887451,768.897400 386.190979,771.890747 387.494537,774.884094 
	C387.188751,775.205627 386.882965,775.527161 386.577209,775.848633 
	C359.283417,762.528625 335.478851,744.451355 313.906494,722.932129 
	C273.243439,682.369080 245.615906,624.545959 241.163162,600.666260 
	C247.012772,601.520386 252.651962,602.744385 258.410217,603.016235 
	C260.697968,603.124268 261.043579,605.768311 261.707245,607.599487 
	C281.658783,662.649536 315.619019,707.049133 363.168945,741.123718 
	C363.980286,741.705139 364.775482,742.372803 365.682648,742.746826 
	C375.788391,746.912781 382.088745,754.043457 383.454956,765.538452 
z"/>
<path fill="#704214" opacity="1.000000" stroke="none" 
	d="
M626.482788,449.323914 
	C617.766235,463.417542 605.245483,470.682648 589.212097,469.910950 
	C573.001343,469.130676 560.869690,460.764008 553.896545,445.922180 
	C546.823120,430.867188 549.823364,412.472168 560.755554,400.749573 
	C572.009644,388.681824 589.647522,384.794434 605.759033,390.830872 
	C620.748779,396.446991 631.481384,411.735291 631.805298,428.399445 
	C631.946350,435.655518 630.203186,442.589050 626.482788,449.323914 
M567.318787,417.559418 
	C569.842163,417.863373 570.132751,420.131683 571.012634,421.833832 
	C573.526428,426.696808 575.109985,426.880829 578.337952,422.587494 
	C578.937683,421.789825 579.459351,420.933807 580.048096,420.127380 
	C584.219055,414.414886 589.465698,413.990997 594.332764,418.965363 
	C599.241699,423.982605 599.305237,423.978149 603.411194,418.318298 
	C608.214783,411.696747 613.634155,412.216980 617.550293,419.579681 
	C618.370361,421.121490 618.488342,423.398804 620.949585,424.013733 
	C620.182617,411.425751 609.132507,399.753571 595.098877,397.865936 
	C581.997375,396.103668 568.433655,402.145477 561.953430,417.389496 
	C556.707520,429.729767 561.447510,445.894623 572.635742,454.002045 
	C584.728333,462.764801 600.277405,462.254395 611.354553,452.731110 
	C619.434326,445.784698 623.796997,433.903107 620.434998,427.372864 
	C619.366272,430.348663 620.223267,434.085938 616.749329,435.648071 
	C613.437683,434.789215 614.076843,430.633789 611.011963,429.319855 
	C608.540405,430.497345 607.630066,433.167786 606.059753,435.210754 
	C602.227295,440.196716 597.612793,440.899445 592.654358,437.161530 
	C587.355164,433.166779 587.299377,433.117004 582.739380,438.230652 
	C580.135864,441.150299 577.266541,443.202362 573.161804,442.063446 
	C565.214355,439.858246 560.972839,423.968597 567.318787,417.559418 
z"/>
<path fill="#704214" opacity="1.000000" stroke="none" 
	d="
M561.838501,378.841003 
	C554.340576,382.960266 549.074524,389.168182 543.242432,395.285553 
	C541.434326,385.720612 556.489685,371.206757 571.788025,366.879272 
	C587.708008,362.375916 605.690125,366.803558 609.791687,377.391907 
	C593.200989,369.870911 577.452576,370.084595 561.838501,378.841003 
z"/>
<path fill="#704214" opacity="1.000000" stroke="none" 
	d="
M640.030823,310.461914 
	C641.301147,315.220551 641.355286,319.690308 641.301697,324.164337 
	C641.248779,328.576813 639.032654,331.302887 634.734741,332.266449 
	C630.403748,333.237427 626.421021,332.871796 623.774902,328.725006 
	C619.504456,322.032745 622.196533,311.738068 629.151489,307.898804 
	C633.472595,305.513519 636.780762,306.184662 640.030823,310.461914 
z"/>
<path fill="#704214" opacity="1.000000" stroke="none" 
	d="
M577.348633,485.021057 
	C569.393860,482.240570 562.206909,479.056519 557.844177,471.690308 
	C559.894958,469.631042 561.254089,471.170959 562.525330,471.946686 
	C580.874573,483.143250 599.343079,482.750061 617.948486,472.639923 
	C619.076233,472.027100 620.136841,471.053741 621.600281,471.715576 
	C619.385437,482.489685 596.668579,489.427490 577.348633,485.021057 
z"/>
<path fill="#704214" opacity="1.000000" stroke="none" 
	d="
M534.905579,299.183472 
	C538.225159,303.420288 537.627563,307.672729 535.096252,311.438812 
	C532.389648,315.465668 528.473145,317.962219 523.250061,317.444489 
	C521.171143,317.238464 519.219971,316.671265 518.431580,314.508759 
	C517.644958,312.351318 519.208313,310.940887 520.661255,309.940216 
	C525.528076,306.588318 528.494324,300.827972 534.905579,299.183472 
z"/>
<path fill="#704214" opacity="1.000000" stroke="none" 
	d="
M622.369263,342.399414 
	C619.396484,347.790527 615.076050,349.251648 610.795349,346.655426 
	C606.816956,344.242523 605.584106,338.750366 608.139893,334.825531 
	C610.348816,331.433319 615.217224,330.471436 618.756836,332.794861 
	C622.112549,334.997559 622.636108,338.384491 622.369263,342.399414 
z"/>
<path fill="#704214" opacity="1.000000" stroke="none" 
	d="
M558.396851,291.846527 
	C559.262268,293.804321 559.365356,295.429382 558.653931,297.030884 
	C556.888916,301.004395 554.070312,303.574982 549.462708,303.165497 
	C546.684570,302.918640 544.207153,301.814270 543.741821,298.620422 
	C543.051819,293.883698 545.343628,290.539368 549.372986,288.530853 
	C553.079285,286.683411 556.091431,288.072113 558.396851,291.846527 
z"/>
<path fill="#704214" opacity="1.000000" stroke="none" 
	d="
M615.457397,315.847168 
	C616.674255,319.848389 615.832275,322.851349 612.333801,324.569305 
	C609.189148,326.113556 606.424072,324.869141 604.435669,322.341644 
	C602.208313,319.510498 602.627136,316.426300 604.678101,313.632599 
	C607.627319,309.615387 611.908813,310.390747 615.457397,315.847168 
z"/>
<path fill="#704214" opacity="1.000000" stroke="none" 
	d="
M632.380371,382.634552 
	C627.904358,381.143433 627.058777,377.944916 627.767273,374.217377 
	C628.332092,371.246002 630.511414,369.682617 633.507385,369.879883 
	C636.854797,370.100281 638.886597,372.210052 639.716064,375.370331 
	C640.731567,379.239929 638.152710,381.906189 632.380371,382.634552 
z"/>
<path fill="#704214" opacity="1.000000" stroke="none" 
	d="
M619.557312,304.774353 
	C615.608887,302.699036 614.788330,299.713135 616.349487,296.207581 
	C617.556458,293.497223 619.975098,292.310181 622.926941,292.890503 
	C626.213257,293.536621 627.504761,296.026672 627.709229,299.068207 
	C627.978088,303.069672 625.121704,305.150879 619.557312,304.774353 
z"/>
<path fill="#704214" opacity="1.000000" stroke="none" 
	d="
M576.175720,283.179779 
	C576.190674,283.911255 576.219421,284.253296 576.147461,284.572632 
	C575.291687,288.369415 572.834534,290.311737 569.020020,290.109436 
	C566.243896,289.962158 564.163025,288.308105 564.105164,285.417908 
	C564.037170,282.020569 565.466675,279.207916 569.109619,278.284454 
	C572.967834,277.306396 575.048218,279.323792 576.175720,283.179779 
z"/>
<path fill="#704214" opacity="1.000000" stroke="none" 
	d="
M516.584351,322.312622 
	C518.599792,324.344452 519.688843,326.398651 518.412598,328.796967 
	C516.831299,331.768524 514.492493,333.982758 510.840027,332.644287 
	C507.303375,331.348267 506.946167,328.148346 508.029419,325.193665 
	C509.444458,321.333893 512.305664,319.869690 516.584351,322.312622 
z"/>
<path fill="#704214" opacity="1.000000" stroke="none" 
	d="
M619.117493,355.564270 
	C622.151062,358.094574 623.250732,360.854218 621.165344,364.027130 
	C619.469238,366.607819 616.760986,366.900269 614.137390,365.807739 
	C611.370239,364.655304 610.229797,362.158722 610.871643,359.317200 
	C611.843262,355.016144 614.781860,353.989319 619.117493,355.564270 
z"/>
<path fill="#704214" opacity="1.000000" stroke="none" 
	d="
M547.818665,310.229431 
	C549.051941,311.574890 549.405640,312.839020 549.316711,314.214600 
	C549.089355,317.733521 547.079773,319.860260 543.697388,320.084900 
	C540.293640,320.310883 538.322571,318.049072 538.300415,314.839966 
	C538.276978,311.457123 540.382996,309.341156 543.800537,308.806946 
	C545.176086,308.591949 546.424194,309.092865 547.818665,310.229431 
z"/>
<path fill="#704214" opacity="1.000000" stroke="none" 
	d="
M479.245300,573.488770 
	C482.906769,573.561890 484.451141,575.381287 484.242676,578.538818 
	C484.091949,580.821899 482.559998,582.038147 480.326294,582.257568 
	C477.958527,582.490112 475.869537,581.700439 475.193726,579.345520 
	C474.318512,576.295776 475.749756,574.275330 479.245300,573.488770 
z"/>
<path fill="#704214" opacity="1.000000" stroke="none" 
	d="
M566.439575,594.382751 
	C564.854309,596.645081 563.071777,597.626709 560.698486,596.702454 
	C559.060852,596.064697 557.911682,594.892639 557.781067,593.036621 
	C557.569763,590.032837 559.109802,588.020996 561.990051,588.047791 
	C565.613403,588.081543 567.244995,590.354797 566.439575,594.382751 
z"/>
<path fill="#704214" opacity="1.000000" stroke="none" 
	d="
M401.585693,549.341370 
	C400.353333,546.570801 400.695404,544.420959 402.785400,542.755188 
	C404.304901,541.544067 405.944611,541.846191 407.360840,542.954407 
	C409.666473,544.758484 410.204254,547.279907 408.542969,549.526733 
	C406.655487,552.079529 404.113098,552.139832 401.585693,549.341370 
z"/>
<path fill="#704214" opacity="1.000000" stroke="none" 
	d="
M429.560944,558.324707 
	C431.075653,557.717041 432.144714,558.031189 433.150635,558.682983 
	C435.410919,560.147583 436.154175,562.297607 435.033051,564.627869 
	C434.075684,566.617737 432.089325,567.333557 430.029388,566.200684 
	C427.802032,564.975769 426.637665,563.076660 427.800323,560.465210 
	C428.121460,559.743774 428.748047,559.158264 429.560944,558.324707 
z"/>
<path fill="#704214" opacity="1.000000" stroke="none" 
	d="
M440.835083,550.560425 
	C440.480103,547.815491 441.089264,545.878845 443.464050,544.968079 
	C444.994934,544.380981 446.408386,544.818787 447.459045,546.066162 
	C449.093292,548.006470 449.922058,550.276733 447.801514,552.198364 
	C445.228607,554.530029 442.737915,554.052429 440.835083,550.560425 
z"/>
<path fill="#704214" opacity="1.000000" stroke="none" 
	d="
M484.269653,565.499878 
	C483.498962,562.900940 483.500397,560.803894 485.685120,559.378906 
	C486.908783,558.580750 488.201843,558.623108 489.415649,559.461243 
	C490.952118,560.522217 491.418488,562.070862 491.184875,563.827148 
	C490.753082,567.074097 488.304504,567.804810 484.269653,565.499878 
z"/>
<path fill="#704214" opacity="1.000000" stroke="none" 
	d="
M557.906250,577.897949 
	C555.199219,579.973083 553.233215,579.171997 551.695740,576.968445 
	C550.437805,575.165527 551.061768,573.437866 552.497620,572.046692 
	C553.845459,570.740784 555.461731,570.560486 557.036377,571.672913 
	C559.284302,573.261047 559.923096,575.225647 557.906250,577.897949 
z"/>
<path fill="#704214" opacity="1.000000" stroke="none" 
	d="
M468.101501,594.050415 
	C466.987579,590.902466 467.621796,588.634155 470.741669,588.000671 
	C473.084137,587.525024 474.405701,589.202087 475.046448,591.280212 
	C475.458435,592.616516 475.321075,593.972717 474.107941,594.899048 
	C472.039246,596.478699 470.095795,596.070618 468.101501,594.050415 
z"/>
<path fill="#704214" opacity="1.000000" stroke="none" 
	d="
M392.914612,573.782715 
	C391.415436,576.418518 389.455017,576.865845 387.324646,575.528381 
	C385.535919,574.405457 385.443665,572.520142 386.160034,570.679199 
	C386.746277,569.172729 387.953064,568.132812 389.586182,568.366150 
	C392.411102,568.769836 393.326172,570.729797 392.914612,573.782715 
z"/>
<path fill="#704214" opacity="1.000000" stroke="none" 
	d="
M392.855011,559.006653 
	C393.218140,556.148865 394.489044,554.580811 397.119629,555.065308 
	C398.869476,555.387573 399.914276,556.776245 400.061981,558.574829 
	C400.197144,560.220703 399.354126,561.477234 397.806366,561.983459 
	C395.381317,562.776489 393.649384,561.952881 392.855011,559.006653 
z"/>
<path fill="#704214" opacity="1.000000" stroke="none" 
	d="
M567.967346,619.036499 
	C565.229492,618.345886 563.830933,616.944153 564.570679,614.347900 
	C565.010437,612.804382 566.233643,611.887817 567.884155,611.906799 
	C569.789612,611.928772 570.898499,613.130005 571.330750,614.860657 
	C571.949951,617.339783 570.533203,618.498413 567.967346,619.036499 
z"/>
<path fill="#704214" opacity="1.000000" stroke="none" 
	d="
M568.020874,640.128845 
	C568.416931,642.588989 567.904846,644.188843 565.482056,644.349915 
	C563.824890,644.459961 562.575317,643.667603 561.978882,642.113953 
	C561.469116,640.786377 561.562988,639.374268 562.799377,638.520447 
	C564.849976,637.104370 566.532837,637.905090 568.020874,640.128845 
z"/>
<path fill="#704214" opacity="1.000000" stroke="none" 
	d="
M448.838013,726.446472 
	C445.077087,722.372742 444.811005,717.879333 447.772858,714.271484 
	C450.922821,710.434692 457.493469,708.737854 461.184845,710.918030 
	C464.676788,712.980347 465.007416,716.161865 463.590607,719.525696 
	C461.538452,724.397949 454.675598,727.677307 448.838013,726.446472 
z"/>
<path fill="#704214" opacity="1.000000" stroke="none" 
	d="
M457.376038,690.808594 
	C460.383209,696.415039 459.508728,701.175964 455.074707,704.286438 
	C451.627655,706.704590 447.711792,707.405029 444.460938,704.471924 
	C440.966431,701.319153 442.526459,697.346558 444.434174,693.938660 
	C446.843964,689.633911 451.644928,688.491821 457.376038,690.808594 
z"/>
<path fill="#704214" opacity="1.000000" stroke="none" 
	d="
M428.021088,709.076904 
	C421.842255,707.265991 420.417694,704.411499 422.623230,699.058044 
	C424.615204,694.223083 429.721283,692.019226 434.072632,694.112305 
	C436.282532,695.175354 437.151001,697.058838 437.232147,699.376648 
	C437.352905,702.826782 435.894684,705.589600 433.068512,707.425476 
	C431.726990,708.296875 429.982666,708.548218 428.021088,709.076904 
z"/>
<path fill="#704214" opacity="1.000000" stroke="none" 
	d="
M448.327484,685.290100 
	C446.913361,686.577393 445.575043,687.130127 444.112732,687.534851 
	C441.850616,688.160950 439.841248,687.875793 438.190857,686.168030 
	C436.364685,684.278259 437.105804,682.209290 437.961884,680.180969 
	C438.153259,679.727539 438.402191,679.294495 438.659393,678.873230 
	C441.157806,674.781616 446.627930,672.621094 449.578308,674.553101 
	C452.349884,676.368103 451.980042,680.357361 448.327484,685.290100 
z"/>
<path fill="#704214" opacity="1.000000" stroke="none" 
	d="
M410.569702,739.491089 
	C415.866058,736.828857 419.474335,737.980713 420.175964,742.255371 
	C420.653900,745.166992 419.636780,747.539246 417.017609,749.013672 
	C414.908325,750.201050 412.748352,750.024231 411.021179,748.330139 
	C408.401886,745.760925 408.122162,742.840332 410.569702,739.491089 
z"/>
<path fill="#704214" opacity="1.000000" stroke="none" 
	d="
M414.130280,715.850525 
	C418.190247,713.870728 421.002899,714.687622 422.190063,718.784607 
	C423.308014,722.642761 420.762207,726.350647 416.929260,726.853699 
	C414.773621,727.136597 412.840424,726.492859 411.854279,724.546082 
	C410.208771,721.297791 411.295715,718.474792 414.130280,715.850525 
z"/>
<path fill="#704214" opacity="1.000000" stroke="none" 
	d="
M424.869263,729.900269 
	C425.130829,726.249268 426.854126,724.259949 430.117676,723.944946 
	C432.342072,723.730286 433.948608,724.946472 434.749359,726.985596 
	C435.768738,729.581482 435.139435,731.909180 433.038574,733.709839 
	C429.980499,736.330811 427.061554,735.079224 424.869263,729.900269 
z"/>
<path fill="#704214" opacity="1.000000" stroke="none" 
	d="
M433.510986,713.678040 
	C435.211212,710.714172 437.465118,710.945618 439.633728,712.156006 
	C441.477295,713.184998 441.710632,715.130981 440.949066,716.939148 
	C440.095001,718.966858 438.337769,720.065796 436.162292,719.426453 
	C433.547729,718.658020 432.629639,716.687378 433.510986,713.678040 
z"/>
</svg>
